<?xml version="1.0" encoding="UTF-8" standalone="no"?>
<!-- Created with Inkscape (http://www.inkscape.org/) -->

<svg
   xmlns:dc="http://purl.org/dc/elements/1.1/"
   xmlns:cc="http://creativecommons.org/ns#"
   xmlns:rdf="http://www.w3.org/1999/02/22-rdf-syntax-ns#"
   xmlns:svg="http://www.w3.org/2000/svg"
   xmlns="http://www.w3.org/2000/svg"
   xmlns:sodipodi="http://sodipodi.sourceforge.net/DTD/sodipodi-0.dtd"
   xmlns:inkscape="http://www.inkscape.org/namespaces/inkscape"
   width="210mm"
   height="297mm"
   viewBox="0 0 210 297"
   version="1.1"
   id="svg56"
   inkscape:version="0.92.4 (5da689c313, 2019-01-14)"
   sodipodi:docname="logo.svg">
  <defs
     id="defs50" />
  <sodipodi:namedview
     id="base"
     pagecolor="#ffffff"
     bordercolor="#666666"
     borderopacity="1.0"
     inkscape:pageopacity="0.0"
     inkscape:pageshadow="2"
     inkscape:zoom="0.98994949"
     inkscape:cx="163.31571"
     inkscape:cy="682.41776"
     inkscape:document-units="mm"
     inkscape:current-layer="g3983"
     showgrid="false"
     inkscape:window-width="1920"
     inkscape:window-height="1001"
     inkscape:window-x="2391"
     inkscape:window-y="-9"
     inkscape:window-maximized="1" />
  <metadata
     id="metadata53">
    <rdf:RDF>
      <cc:Work
         rdf:about="">
        <dc:format>image/svg+xml</dc:format>
        <dc:type
           rdf:resource="http://purl.org/dc/dcmitype/StillImage" />
        <dc:title></dc:title>
      </cc:Work>
    </rdf:RDF>
  </metadata>
  <g
     inkscape:label="Layer 1"
     inkscape:groupmode="layer"
     id="layer1">
    <g
       transform="matrix(0.26458333,0,0,0.26458333,0.6155119,-20.231841)"
       id="g3983">
      <g
         id="g4618"
         transform="matrix(0.99070671,0,0,0.97931899,1.4628117,23.031)">
        <path
           style="fill:#ecf0f1;fill-opacity:1;stroke:#2c3e50;stroke-width:1px;stroke-linecap:butt;stroke-linejoin:miter;stroke-opacity:1"
           d="m 368.70568,275.0498 c -385.047417,7.689 -171.51081,360.24425 -47.91033,495.07714 29.50131,32.1823 46.85244,67.94158 84.55769,23.2204 C 678.32372,465.56883 679.30433,282.36657 368.70568,275.0498 Z"
           id="path3025"
           inkscape:connector-curvature="0"
           sodipodi:nodetypes="cscc" />
        <g
           style="fill:#2c3e50;fill-opacity:1"
           id="g3199"
           transform="translate(0.50507627,-2.5253814)">
          <path
             sodipodi:nodetypes="ccccc"
             inkscape:connector-curvature="0"
             id="path3030"
             d="m 362.28499,421.17266 c 16.32246,-17.05312 19.96757,-35.7503 -2.70766,-47.43489 -29.13046,-18.60435 -23.61153,-53.36963 23.41579,-66.20727 -11.76875,15.0595 -40.39853,40.31965 -8.35632,53.57038 41.20109,16.16156 27.07254,40.00779 21.99338,62.59716"
             style="fill:#2c3e50;fill-opacity:1;stroke:#000000;stroke-width:1px;stroke-linecap:butt;stroke-linejoin:miter;stroke-opacity:1" />
          <path
             sodipodi:nodetypes="ccccc"
             inkscape:connector-curvature="0"
             id="path3030-5"
             d="m 396.47867,423.3504 c 22.71754,-6.41445 35.34451,-20.67738 21.73225,-42.25055 -15.66437,-30.81126 6.72934,-57.97015 53.768,-45.17415 -17.78195,7.00672 -55.26902,14.24957 -34.37937,41.9246 27.30552,34.83008 3.03217,48.21153 -12.80525,65.10099"
             style="fill:#2c3e50;fill-opacity:1;stroke:#000000;stroke-width:1px;stroke-linecap:butt;stroke-linejoin:miter;stroke-opacity:1" />
          <path
             sodipodi:nodetypes="ccccc"
             inkscape:connector-curvature="0"
             id="path3030-5-4"
             d="m 424.78843,442.48767 c 22.87099,5.84376 40.94829,-0.16316 39.99096,-25.65391 1.90035,-34.51224 34.89485,-46.7779 69.17286,-12.1168 -18.898,-2.85609 -54.96228,-15.39033 -50.76912,19.02917 6.15547,43.82734 -21.55559,43.23079 -43.72765,49.89995"
             style="fill:#2c3e50;fill-opacity:1;stroke:#000000;stroke-width:1px;stroke-linecap:butt;stroke-linejoin:miter;stroke-opacity:1" />
          <path
             sodipodi:nodetypes="ccccc"
             inkscape:connector-curvature="0"
             id="path3030-0"
             d="m 439.53089,473.31421 c 17.05312,16.32246 35.7503,19.96757 47.43489,-2.70766 18.60435,-29.13046 53.36963,-23.61153 66.20727,23.41579 -15.0595,-11.76875 -40.31965,-40.39853 -53.57038,-8.35632 -16.16156,41.20109 -40.00779,27.07254 -62.59716,21.99338"
             style="fill:#2c3e50;fill-opacity:1;stroke:#000000;stroke-width:1px;stroke-linecap:butt;stroke-linejoin:miter;stroke-opacity:1" />
          <path
             sodipodi:nodetypes="ccccc"
             inkscape:connector-curvature="0"
             id="path3030-72"
             d="m 386.48557,550.46654 c -16.32246,17.05312 -19.96757,35.7503 2.70766,47.43489 29.13046,18.60435 23.61153,53.36963 -23.41579,66.20727 11.76875,-15.0595 40.39853,-40.31965 8.35632,-53.57038 -41.20109,-16.16156 -27.07254,-40.00779 -21.99338,-62.59716"
             style="fill:#2c3e50;fill-opacity:1;stroke:#000000;stroke-width:1px;stroke-linecap:butt;stroke-linejoin:miter;stroke-opacity:1" />
          <path
             sodipodi:nodetypes="ccccc"
             inkscape:connector-curvature="0"
             id="path3030-5-6"
             d="m 352.47045,548.02094 c -22.71754,6.41445 -35.34451,20.67738 -21.73225,42.25055 15.66437,30.81126 -6.72934,57.97015 -53.768,45.17415 17.78195,-7.00672 55.26902,-14.24957 34.37937,-41.9246 -27.30552,-34.83008 -3.03217,-48.21153 12.80525,-65.10099"
             style="fill:#2c3e50;fill-opacity:1;stroke:#000000;stroke-width:1px;stroke-linecap:butt;stroke-linejoin:miter;stroke-opacity:1" />
          <path
             sodipodi:nodetypes="ccccc"
             inkscape:connector-curvature="0"
             id="path3030-5-4-0"
             d="m 324.24998,528.61581 c -22.87099,-5.84376 -40.94829,0.16316 -39.99096,25.65391 -1.90035,34.51224 -34.89485,46.7779 -69.17286,12.1168 18.898,2.85609 54.96228,15.39033 50.76912,-19.02917 -6.15547,-43.82734 21.55559,-43.23079 43.72765,-49.89995"
             style="fill:#2c3e50;fill-opacity:1;stroke:#000000;stroke-width:1px;stroke-linecap:butt;stroke-linejoin:miter;stroke-opacity:1" />
          <path
             sodipodi:nodetypes="ccccc"
             inkscape:connector-curvature="0"
             id="path3030-0-1"
             d="m 309.59681,497.87856 c -17.05312,-16.32246 -35.7503,-19.96757 -47.43489,2.70766 -18.60435,29.13046 -53.36963,23.61153 -66.20727,-23.41579 15.0595,11.76875 40.31965,40.39853 53.57038,8.35632 16.16156,-41.20109 40.00779,-27.07254 62.59716,-21.99338"
             style="fill:#2c3e50;fill-opacity:1;stroke:#000000;stroke-width:1px;stroke-linecap:butt;stroke-linejoin:miter;stroke-opacity:1" />
          <path
             sodipodi:nodetypes="ccccc"
             inkscape:connector-curvature="0"
             id="path3030-5-5"
             d="m 312.23895,463.86683 c -6.41445,-22.71754 -20.67738,-35.34451 -42.25055,-21.73225 -30.81126,15.66437 -57.97015,-6.72934 -45.17415,-53.768 7.00672,17.78195 14.24957,55.26902 41.9246,34.37937 34.83008,-27.30552 48.21153,-3.03217 65.10099,12.80525"
             style="fill:#2c3e50;fill-opacity:1;stroke:#000000;stroke-width:1px;stroke-linecap:butt;stroke-linejoin:miter;stroke-opacity:1" />
          <path
             sodipodi:nodetypes="ccccc"
             inkscape:connector-curvature="0"
             id="path3030-5-4-7"
             d="m 331.64408,435.91422 c 5.84376,-22.87099 -0.16316,-40.94829 -25.65391,-39.99096 -34.51224,-1.90035 -46.7779,-34.89485 -12.1168,-69.17286 -2.85609,18.898 -15.39033,54.96228 19.02917,50.76912 43.82734,-6.15547 43.23079,21.55559 49.89995,43.72765"
             style="fill:#2c3e50;fill-opacity:1;stroke:#000000;stroke-width:1px;stroke-linecap:butt;stroke-linejoin:miter;stroke-opacity:1" />
          <path
             sodipodi:nodetypes="ccccc"
             inkscape:connector-curvature="0"
             id="path3030-5-41"
             d="m 437.17388,507.45839 c 6.41445,22.71754 20.67738,35.34451 42.25055,21.73225 30.81126,-15.66437 57.97015,6.72934 45.17415,53.768 -7.00672,-17.78195 -14.24957,-55.26902 -41.9246,-34.37937 -34.83008,27.30552 -48.21153,3.03217 -65.10099,-12.80525"
             style="fill:#2c3e50;fill-opacity:1;stroke:#000000;stroke-width:1px;stroke-linecap:butt;stroke-linejoin:miter;stroke-opacity:1" />
          <path
             sodipodi:nodetypes="ccccc"
             inkscape:connector-curvature="0"
             id="path3030-5-4-2"
             d="m 417.56218,535.96204 c -5.84376,22.87099 0.16316,40.94829 25.65391,39.99096 34.51224,1.90035 46.7779,34.89485 12.1168,69.17286 2.85609,-18.898 15.39033,-54.96228 -19.02917,-50.76912 -43.82734,6.15547 -43.23079,-21.55559 -49.89995,-43.72765"
             style="fill:#2c3e50;fill-opacity:1;stroke:#000000;stroke-width:1px;stroke-linecap:butt;stroke-linejoin:miter;stroke-opacity:1" />
        </g>
        <rect
           style="fill:#4bbf73;fill-opacity:0;stroke:#000000;stroke-width:1.21213782;stroke-opacity:1"
           id="rect3213"
           width="107.61012"
           height="107.61012"
           x="321.37558"
           y="429.42004"
           ry="53.805054"
           rx="53.805054" />
      </g>
    </g>
  </g>
</svg>
